<svg viewBox="0 0 20 20" xmlns="http://www.w3.org/2000/svg">
    <path fill-rule="evenodd" clip-rule="evenodd" d="M1.667 10a8.333 8.333 0 1 1 16.666 0 8.333 8.333 0 0 1-16.666 0zM10 3.333a6.667 6.667 0 1 0 0 13.334 6.667 6.667 0 0 0 0-13.334z"/>
    <path fill-rule="evenodd" clip-rule="evenodd" d="M5.833 10c0 .46.373.833.834.833h6.666a.833.833 0 0 0 0-1.666H6.667a.833.833 0 0 0-.834.833z" />
    <path fill-rule="evenodd" clip-rule="evenodd" d="M10.59 6.077a.833.833 0 0 1 0 1.179L7.844 10l2.744 2.744a.833.833 0 0 1-1.18 1.179l-3.333-3.334a.833.833 0 0 1 0-1.18l3.334-3.333a.833.833 0 0 1 1.18 0z" />
</svg>
