<svg viewBox="0 0 32 32" xmlns="http://www.w3.org/2000/svg">
    <path fill-rule="evenodd" clip-rule="evenodd"
          d="M11.67 7.066c-.926 1.054-1.448 2.583-1.448 4.4v2.312c0 1.147-.516 2.1-1.064 2.827-.5.664-1.124 1.26-1.613 1.729-.041.039-.082.077-.12.115-.459.438-.758 1.035-.758 1.728 0 .7.525 1.155 1.037 1.155h16.592c.513 0 1.037-.455 1.037-1.155 0-.693-.3-1.29-.757-1.73l-.12-.114c-.49-.469-1.114-1.065-1.614-1.73-.548-.726-1.064-1.679-1.064-2.826v-2.311c0-1.818-.522-3.347-1.447-4.4-.902-1.03-2.297-1.734-4.33-1.734s-3.428.704-4.33 1.733zM9.663 5.308C11.132 3.634 13.293 2.667 16 2.667s4.868.967 6.336 2.64c1.445 1.649 2.108 3.854 2.108 6.16v2.31c0 .326.146.718.527 1.223.366.484.84.938 1.363 1.44l.089.084C27.333 17.4 28 18.667 28 20.178 28 22.227 26.402 24 24.296 24H7.704C5.598 24 4 22.227 4 20.178c0-1.512.667-2.779 1.578-3.653.03-.03.06-.057.09-.085.522-.502.996-.956 1.36-1.44.382-.505.528-.897.528-1.222v-2.311c0-2.306.663-4.511 2.108-6.16z"
    />
    <path fill-rule="evenodd" clip-rule="evenodd"
          d="M12.59 25.56a1.333 1.333 0 0 1 1.85.364c.133.198.34.384.616.522.277.138.603.216.944.216.34 0 .667-.078.944-.216.277-.138.483-.324.615-.522a1.333 1.333 0 1 1 2.214 1.485 4.245 4.245 0 0 1-1.64 1.423 4.794 4.794 0 0 1-2.134.496c-.74-.001-1.474-.169-2.133-.497a4.245 4.245 0 0 1-1.641-1.424 1.333 1.333 0 0 1 .365-1.85z"
    />
</svg>
