<svg viewBox="0 0 29 28" xmlns="http://www.w3.org/2000/svg">
    <path fill-rule="evenodd" clip-rule="evenodd"
          d="M2.833 9.333A5.833 5.833 0 0 1 8.667 3.5h11.666a5.833 5.833 0 0 1 5.834 5.833V14a1.167 1.167 0 0 1-2.334 0V9.333a3.5 3.5 0 0 0-3.5-3.5H8.667a3.5 3.5 0 0 0-3.5 3.5v10.5a3.5 3.5 0 0 0 3.5 3.5H14.5a1.167 1.167 0 0 1 0 2.334H8.667a5.833 5.833 0 0 1-5.834-5.834v-10.5z"
    />
    <path fill-rule="evenodd" clip-rule="evenodd"
          d="M9.833 2.333c.645 0 1.167.523 1.167 1.167V7a1.167 1.167 0 1 1-2.333 0V3.5c0-.644.522-1.167 1.166-1.167z"
    />
    <path fill-rule="evenodd" clip-rule="evenodd"
          d="M7.5 11.667c0-.645.522-1.167 1.167-1.167h11.666a1.167 1.167 0 1 1 0 2.333H8.667A1.167 1.167 0 0 1 7.5 11.667z"
    />
    <path fill-rule="evenodd" clip-rule="evenodd"
          d="M19.167 2.333c.644 0 1.166.523 1.166 1.167V7A1.167 1.167 0 1 1 18 7V3.5c0-.644.522-1.167 1.167-1.167z"
    />
    <path fill-rule="evenodd" clip-rule="evenodd"
          d="M21.5 18.667a2.333 2.333 0 1 0 0 4.666 2.333 2.333 0 0 0 0-4.666zM16.833 21a4.667 4.667 0 1 1 9.334 0 4.667 4.667 0 0 1-9.334 0z"
    />
</svg>
