<svg viewBox="0 0 20 20" xmlns="http://www.w3.org/2000/svg">
    <path fill-rule="evenodd" clip-rule="evenodd"
          d="M1.667 5A3.333 3.333 0 0 1 5 1.667h.833A3.333 3.333 0 0 1 9.167 5v.833a3.333 3.333 0 0 1-3.334 3.334H5a3.333 3.333 0 0 1-3.333-3.334V5zM5 3.333c-.92 0-1.667.747-1.667 1.667v.833C3.333 6.753 4.08 7.5 5 7.5h.833c.92 0 1.667-.746 1.667-1.667V5c0-.92-.746-1.667-1.667-1.667H5zM10.833 5a3.333 3.333 0 0 1 3.334-3.333H15A3.333 3.333 0 0 1 18.333 5v.833A3.333 3.333 0 0 1 15 9.167h-.833a3.333 3.333 0 0 1-3.334-3.334V5zm3.334-1.667c-.92 0-1.667.747-1.667 1.667v.833c0 .92.746 1.667 1.667 1.667H15c.92 0 1.667-.746 1.667-1.667V5c0-.92-.746-1.667-1.667-1.667h-.833zm-12.5 10.834A3.333 3.333 0 0 1 5 10.833h.833a3.333 3.333 0 0 1 3.334 3.334V15a3.333 3.333 0 0 1-3.334 3.333H5A3.333 3.333 0 0 1 1.667 15v-.833zM5 12.5c-.92 0-1.667.746-1.667 1.667V15c0 .92.747 1.667 1.667 1.667h.833c.92 0 1.667-.747 1.667-1.667v-.833c0-.92-.746-1.667-1.667-1.667H5zm5.833 1.667a3.333 3.333 0 0 1 3.334-3.334H15a3.333 3.333 0 0 1 3.333 3.334V15A3.333 3.333 0 0 1 15 18.333h-.833A3.333 3.333 0 0 1 10.833 15v-.833zm3.334-1.667c-.92 0-1.667.746-1.667 1.667V15c0 .92.746 1.667 1.667 1.667H15c.92 0 1.667-.747 1.667-1.667v-.833c0-.92-.746-1.667-1.667-1.667h-.833z"
    />
</svg>
