<svg viewBox="0 0 20 20" xmlns="http://www.w3.org/2000/svg">
    <path fill-rule="evenodd" clip-rule="evenodd"
          d="M15.998 3.333a.67.67 0 0 0-.473.196L8.96 10.092l-.315 1.262 1.262-.316 6.564-6.565a.67.67 0 0 0-.472-1.142zm-1.652-.982a2.336 2.336 0 0 1 3.303 3.304l-6.728 6.727a.833.833 0 0 1-.387.22l-2.833.708a.834.834 0 0 1-1.01-1.01L7.4 9.465a.833.833 0 0 1 .22-.387l6.726-6.727z"
    />
    <path fill-rule="evenodd" clip-rule="evenodd"
          d="M12.744 4.41a.833.833 0 0 1 1.179 0l1.666 1.667a.833.833 0 0 1-1.18 1.179l-1.666-1.667a.833.833 0 0 1 0-1.18z"
    />
    <path fill-rule="evenodd" clip-rule="evenodd"
          d="M10 3.333A6.667 6.667 0 1 0 16.667 10v-.417a.833.833 0 0 1 1.666 0V10A8.333 8.333 0 1 1 10 1.667h.417a.833.833 0 1 1 0 1.666H10z"
    />
</svg>
