<svg viewBox="0 0 88 88" xmlns="http://www.w3.org/2000/svg">
    <path fill-rule="evenodd" clip-rule="evenodd"
          d="M14.667 22c0-8.1 6.566-14.667 14.666-14.667h29.334c8.1 0 14.666 6.567 14.666 14.667v44c0 8.1-6.566 14.667-14.666 14.667H29.333c-8.1 0-14.666-6.567-14.666-14.667V22zm14.666-7.333A7.333 7.333 0 0 0 22 22v44a7.333 7.333 0 0 0 7.333 7.333h29.334A7.333 7.333 0 0 0 66 66V22a7.333 7.333 0 0 0-7.333-7.333H29.333z"
    />
    <path fill-rule="evenodd" clip-rule="evenodd"
          d="M29.333 7.333h6.023A11.72 11.72 0 0 1 44 11.138a11.72 11.72 0 0 1 8.644-3.805h6.023v7.334h-6.023c-1.661 0-3.18.939-3.924 2.425-1.944 3.89-7.495 3.89-9.44 0a4.387 4.387 0 0 0-3.924-2.425h-6.022V7.333z"
    />
    <path fill-rule="evenodd" clip-rule="evenodd"
          d="M32.24 37.74a3.667 3.667 0 0 1 5.186 0L55.76 56.075a3.667 3.667 0 0 1-5.186 5.185L32.24 42.925a3.667 3.667 0 0 1 0-5.185z"
    />
    <path fill-rule="evenodd" clip-rule="evenodd"
          d="M55.76 37.74a3.667 3.667 0 0 0-5.186 0L32.241 56.075a3.667 3.667 0 0 0 5.186 5.185L55.76 42.925a3.667 3.667 0 0 0 0-5.185z"
    />
</svg>
