<svg viewBox="0 0 20 20" xmlns="http://www.w3.org/2000/svg">
    <path fill-rule="evenodd" clip-rule="evenodd"
          d="M6.667 14.167c0-.46.373-.834.833-.834h5a.833.833 0 0 1 0 1.667h-5a.833.833 0 0 1-.833-.833z"
    />
    <path fill-rule="evenodd" clip-rule="evenodd"
          d="M6.667 10.833c0-.46.373-.833.833-.833h5a.833.833 0 0 1 0 1.667h-5a.833.833 0 0 1-.833-.834z"
    />
    <path fill-rule="evenodd" clip-rule="evenodd"
          d="M6.667 7.5c0-.46.373-.833.833-.833h.833a.833.833 0 0 1 0 1.666H7.5a.833.833 0 0 1-.833-.833z"
    />
    <path fill-rule="evenodd" clip-rule="evenodd"
          d="M6.667 3.333C5.747 3.333 5 4.08 5 5v10c0 .92.746 1.667 1.667 1.667h6.666C14.253 16.667 15 15.92 15 15V7.357a.833.833 0 0 0-.244-.59l-3.19-3.19a.833.833 0 0 0-.59-.244h-4.31zM3.333 5a3.333 3.333 0 0 1 3.334-3.333h4.31a2.5 2.5 0 0 1 1.767.732l3.19 3.19a2.5 2.5 0 0 1 .733 1.767V15a3.333 3.333 0 0 1-3.334 3.333H6.667A3.333 3.333 0 0 1 3.333 15V5z"
    />
    <path fill-rule="evenodd" clip-rule="evenodd"
          d="M11.667 2.5v1.667a2.5 2.5 0 0 0 2.5 2.5h1.666v1.666h-1.666A4.167 4.167 0 0 1 10 4.167V2.5h1.667z"
    />
</svg>
