<svg viewBox="0 0 20 20" xmlns="http://www.w3.org/2000/svg">
    <path fill-rule="evenodd" clip-rule="evenodd" d="M2.5 4.822A2.322 2.322 0 0 1 4.822 2.5h10.356A2.322 2.322 0 0 1 17.5 4.822c0 .672-.24 1.323-.678 1.833L14.46 9.411a5.833 5.833 0 0 0-1.404 3.797V15a2.5 2.5 0 0 1-2.5 2.5H9.444a2.5 2.5 0 0 1-2.5-2.5v-1.793c0-1.393-.498-2.74-1.404-3.796L3.178 6.656A2.818 2.818 0 0 1 2.5 4.822zm2.322-.655a.655.655 0 0 0-.655.655c0 .274.098.54.277.749l2.362 2.756a7.5 7.5 0 0 1 1.805 4.88V15c.001.46.374.833.834.833h1.112c.46 0 .833-.373.833-.833v-1.793a7.5 7.5 0 0 1 1.804-4.88l2.362-2.756a1.15 1.15 0 0 0 .277-.748.655.655 0 0 0-.655-.655H4.823z"/>
</svg>
