<svg width="48" height="48" viewBox="0 0 48 48" fill="none" xmlns="http://www.w3.org/2000/svg">
<path fill-rule="evenodd" clip-rule="evenodd" d="M45.6 10H40.8C40.1635 10 38.9501 9.95009 38.5 9.5C38.0499 9.04991 38 7.83653 38 7.20001V2.40002C38 1.7635 38.1471 1.15303 37.697 0.702942C37.2469 0.252855 36.6365 0 36 0H12C11.3635 0 10.753 0.252855 10.3029 0.702942C9.85283 1.15303 10 1.7635 10 2.40002V7.20001C10 7.83653 9.95009 9.04991 9.5 9.5C9.04991 9.95009 7.63652 10 7 10H2.5C1.86348 10 1.15303 9.85286 0.702942 10.3029C0.252855 10.753 0 11.3635 0 12V36C0 36.6365 0.252855 37.247 0.702942 37.6971C1.15303 38.1472 1.86348 38 2.5 38H7C7.63652 38 9.04991 38.0499 9.5 38.5C9.95009 38.9501 10 40.1635 10 40.8V45.6C10 46.2365 9.85283 46.847 10.3029 47.2971C10.753 47.7471 11.3635 48 12 48H36C36.6365 48 37.2469 47.7471 37.697 47.2971C38.1471 46.847 38 46.2365 38 45.6V40.8C38 40.1635 38.0499 38.9501 38.5 38.5C38.9501 38.0499 40.1635 38 40.8 38H45.6C46.2365 38 46.847 38.1472 47.2971 37.6971C47.7471 37.247 48 36.6365 48 36V12C48 11.3635 47.7471 10.753 47.2971 10.3029C46.847 9.85286 46.2365 10 45.6 10Z" fill="#1154CC"/>
</svg>
