<svg viewBox="0 0 24 24" xmlns="http://www.w3.org/2000/svg">
<path fill-rule="evenodd" clip-rule="evenodd" d="M15.3646 15.2443C17.3041 12.7534 17.129 9.14958 14.8391 6.85969C12.3595 4.3801 8.33927 4.3801 5.85969 6.85969C3.3801 9.33927 3.3801 13.3595 5.85969 15.8391C8.14958 18.129 11.7534 18.3041 14.2443 16.3646C14.255 16.3768 14.2662 16.3887 14.2779 16.4003L17.6451 19.7675C17.9551 20.0775 18.4576 20.0775 18.7675 19.7675C19.0775 19.4576 19.0775 18.9551 18.7675 18.6451L15.4003 15.2779C15.3887 15.2662 15.3768 15.255 15.3646 15.2443ZM13.7166 7.98211C15.5763 9.8418 15.5763 12.857 13.7166 14.7166C11.857 16.5763 8.8418 16.5763 6.98211 14.7166C5.12242 12.857 5.12242 9.8418 6.98211 7.98211C8.8418 6.12242 11.857 6.12242 13.7166 7.98211Z" />
</svg>
