<svg viewBox="0 0 20 20" xmlns="http://www.w3.org/2000/svg">
    <path fill-rule="evenodd" clip-rule="evenodd"
          d="M10 8.333a1.667 1.667 0 1 0 0 3.334 1.667 1.667 0 0 0 0-3.334zM6.667 10a3.333 3.333 0 1 1 6.666 0 3.333 3.333 0 0 1-6.666 0z"
    />
    <path fill-rule="evenodd" clip-rule="evenodd"
          d="M7.275 3.784c0-1.17.948-2.117 2.117-2.117h1.216c1.17 0 2.117.948 2.117 2.117 0 .17.117.396.396.548.087.046.172.095.256.145.278.168.54.157.693.07a2.14 2.14 0 0 1 2.91.78l.587 1.007a2.12 2.12 0 0 1-.779 2.907c-.148.086-.287.301-.28.622a6.32 6.32 0 0 1 0 .276c-.007.32.132.536.28.62a2.12 2.12 0 0 1 .78 2.908l-.588 1.008a2.14 2.14 0 0 1-2.91.78c-.154-.088-.416-.1-.694.069-.084.05-.169.099-.255.146-.278.15-.395.376-.395.546 0 1.17-.948 2.117-2.117 2.117H9.392a2.118 2.118 0 0 1-2.117-2.117c0-.17-.117-.396-.397-.547a6.476 6.476 0 0 1-.254-.147c-.278-.168-.54-.157-.694-.07a2.14 2.14 0 0 1-2.91-.78l-.587-1.007a2.12 2.12 0 0 1 .778-2.907c.15-.086.289-.301.282-.622a6.52 6.52 0 0 1 0-.276c.007-.32-.132-.536-.28-.62a2.12 2.12 0 0 1-.78-2.908l.588-1.008a2.14 2.14 0 0 1 2.91-.78c.154.088.416.1.694-.069.084-.05.168-.099.254-.145.28-.152.397-.378.397-.548zm2.117-.45a.45.45 0 0 0-.45.45c0 .922-.589 1.643-1.268 2.012-.064.035-.127.07-.19.109-.662.4-1.58.546-2.381.088a.473.473 0 0 0-.643.172l-.587 1.008a.453.453 0 0 0 .166.621c.801.46 1.135 1.33 1.118 2.103a4.856 4.856 0 0 0 0 .206c.017.773-.317 1.644-1.119 2.103a.453.453 0 0 0-.167.621l.587 1.008c.13.224.417.3.643.172.8-.458 1.719-.311 2.382.089.062.037.125.073.189.108.68.37 1.267 1.09 1.267 2.012.001.249.203.45.452.45h1.216a.45.45 0 0 0 .45-.45c0-.922.589-1.643 1.268-2.012.064-.035.127-.07.19-.108.662-.4 1.58-.547 2.381-.09a.473.473 0 0 0 .643-.171l.587-1.008a.453.453 0 0 0-.166-.621c-.801-.46-1.135-1.33-1.119-2.103a4.375 4.375 0 0 0 .001-.206c-.015-.773.319-1.644 1.12-2.103a.453.453 0 0 0 .167-.62l-.587-1.009a.473.473 0 0 0-.643-.172c-.8.458-1.719.311-2.382-.089a4.847 4.847 0 0 0-.19-.108c-.679-.369-1.266-1.09-1.266-2.012a.45.45 0 0 0-.452-.45H9.392z"
    />
</svg>
