<svg viewBox="0 0 20 20" xmlns="http://www.w3.org/2000/svg">
<path fill-rule="evenodd" clip-rule="evenodd" d="M3.33325 4.99996C3.33325 3.15901 4.82564 1.66663 6.66659 1.66663H13.3333C15.1742 1.66663 16.6666 3.15901 16.6666 4.99996V15C16.6666 16.8409 15.1742 18.3333 13.3333 18.3333H6.66659C4.82564 18.3333 3.33325 16.8409 3.33325 15V4.99996ZM6.66659 3.33329C5.74611 3.33329 4.99992 4.07949 4.99992 4.99996V15C4.99992 15.9204 5.74611 16.6666 6.66659 16.6666H13.3333C14.2537 16.6666 14.9999 15.9204 14.9999 15V4.99996C14.9999 4.07948 14.2537 3.33329 13.3333 3.33329H6.66659Z" />
<path fill-rule="evenodd" clip-rule="evenodd" d="M6.6665 1.66663H6.7591C7.79456 1.66663 8.66462 2.37483 8.91131 3.33329H11.0884C11.3351 2.37483 12.2051 1.66663 13.2406 1.66663H13.3332V3.33329H13.2406C12.9338 3.33329 12.685 3.58202 12.685 3.88885C12.685 4.5025 12.1876 4.99996 11.5739 4.99996H8.42576C7.81211 4.99996 7.31465 4.5025 7.31465 3.88885C7.31465 3.58202 7.06592 3.33329 6.7591 3.33329H6.6665V1.66663Z" />
<path fill-rule="evenodd" clip-rule="evenodd" d="M10.0001 7.5C10.4603 7.5 10.8334 7.8731 10.8334 8.33333V10H12.5001C12.9603 10 13.3334 10.3731 13.3334 10.8333C13.3334 11.2936 12.9603 11.6667 12.5001 11.6667H10.8334V13.3333C10.8334 13.7936 10.4603 14.1667 10.0001 14.1667C9.53984 14.1667 9.16675 13.7936 9.16675 13.3333L9.16675 11.6667H7.50008C7.03984 11.6667 6.66675 11.2936 6.66675 10.8333C6.66675 10.3731 7.03984 10 7.50008 10H9.16675V8.33333C9.16675 7.8731 9.53984 7.5 10.0001 7.5Z" />
</svg>
