<svg viewBox="0 0 20 20" xmlns="http://www.w3.org/2000/svg">
    <path fill-rule="evenodd" clip-rule="evenodd"
          d="M1.667 5.833a4.167 4.167 0 0 1 4.166-4.166h8.334a4.167 4.167 0 0 1 4.166 4.166v8.334a4.167 4.167 0 0 1-4.166 4.166H5.833a4.167 4.167 0 0 1-4.166-4.166V5.833zm4.166-2.5a2.5 2.5 0 0 0-2.5 2.5v8.334a2.5 2.5 0 0 0 2.5 2.5h8.334a2.5 2.5 0 0 0 2.5-2.5V5.833a2.5 2.5 0 0 0-2.5-2.5H5.833z"
    />
    <path fill-rule="evenodd" clip-rule="evenodd"
          d="M8.93 5.997a1.25 1.25 0 0 1 2.141 0l.834 1.383 1.572.364a1.25 1.25 0 0 1 .662 2.038L13.08 11l.14 1.61a1.25 1.25 0 0 1-1.733 1.258L10 13.238l-1.486.63A1.25 1.25 0 0 1 6.78 12.61L6.92 11 5.862 9.783a1.25 1.25 0 0 1 .662-2.038l1.573-.364.832-1.383zM10 7.449l-.566.94a1.25 1.25 0 0 1-.79.574l-1.07.248.72.83c.222.255.331.59.302.927L8.5 12.062l1.012-.428a1.25 1.25 0 0 1 .976 0l1.011.428-.096-1.094a1.25 1.25 0 0 1 .302-.929l.72-.828-1.07-.248a1.25 1.25 0 0 1-.79-.573L10 7.45z"
    />
</svg>
