<svg viewBox="0 0 20 20"  xmlns="http://www.w3.org/2000/svg">
<path fill-rule="evenodd" clip-rule="evenodd" d="M9.99992 3.33329C8.61921 3.33329 7.49992 4.45258 7.49992 5.83329C7.49992 7.214 8.61921 8.33329 9.99992 8.33329C11.3806 8.33329 12.4999 7.214 12.4999 5.83329C12.4999 4.45258 11.3806 3.33329 9.99992 3.33329ZM5.83325 5.83329C5.83325 3.53211 7.69873 1.66663 9.99992 1.66663C12.3011 1.66663 14.1666 3.53211 14.1666 5.83329C14.1666 8.13448 12.3011 9.99996 9.99992 9.99996C7.69873 9.99996 5.83325 8.13448 5.83325 5.83329Z" />
<path fill-rule="evenodd" clip-rule="evenodd" d="M10 16.6667C7.5593 16.6667 6.1122 15.9283 5.27949 14.9757C5.02577 14.6854 4.95964 14.4303 4.96731 14.221C4.97549 13.9977 5.07204 13.7392 5.28936 13.4744C5.73575 12.9304 6.58445 12.5 7.50001 12.5H12.5C13.4156 12.5 14.2643 12.9304 14.7107 13.4743C14.928 13.7392 15.0245 13.9977 15.0327 14.221C15.0404 14.4303 14.9743 14.6854 14.7205 14.9757C13.8878 15.9283 12.4407 16.6667 10 16.6667ZM4.02466 16.0726C5.2518 17.4764 7.21107 18.3334 10 18.3334C12.789 18.3334 14.7482 17.4764 15.9754 16.0726C16.4789 15.4966 16.723 14.8364 16.6983 14.16C16.674 13.4976 16.3954 12.9 15.9991 12.4171C15.2182 11.4655 13.8856 10.8334 12.5 10.8334H7.50001C6.11439 10.8334 4.78187 11.4655 4.00097 12.4171C3.60464 12.9 3.32602 13.4976 3.30176 14.16C3.27699 14.8364 3.52114 15.4966 4.02466 16.0726Z" />
</svg>
